<svg xmlns="http://www.w3.org/2000/svg" viewBox="0 0 24 24">
  <path fill="#E76F00" d="M9 16.5c-3.5.8-2.5 1.5-.5 2 5 .7 9.2-.3 9.5-.5-.5-.2-1-.5-1.8-.7-3 .7-8.5.7-7.2-.8zM8.5 14c-1.8.5-.5 1 .2 1.2 2.7.5 6.3.3 8-.2l-1-.7c-2 .4-6 .2-7.2-.3zM14 9c1.5 1.5-.5 3.5-.5 3.5s1.5-.2 3-1.5c2-2.3-1.7-4.5-2.5-4.5.1 0 1.5.7 0 2.5zM17 20.5s.8.5-.8 1c-3 .5-12.5.5-15-.2-.8-.3.8-.7 1.3-.8.5-.1.8-.1.8-.1-1-.7-6 1.5-2.5 2 9.7 1.5 17.5-.8 16.2-2z"/>
  <path fill="#5382A1" d="M11 4.5S8 6.5 13 11c1.2 1.1 0 3-.5 3.5 0 0 2.7-1.3 1.5-3-1-1.5-1.7-2.2 1-4zM15.5 18c3.5-.5 1-1.5 1-1.5-.5.1-1 .2-1.5.3-2 .4-6 .2-7.2-.3-.8-.3 1-1 1.5-1z"/>
</svg>
