<svg xmlns="http://www.w3.org/2000/svg" viewBox="245 0 150 140">
  <title>Apache Maven</title>
  <defs><linearGradient id="logosMaven0" x1="20.683%" x2="146.237%" y1="63.558%" y2="19.88%"><stop offset="0%" stop-color="#F69923"/><stop offset="31.23%" stop-color="#F79A23"/><stop offset="83.83%" stop-color="#E97826"/></linearGradient><linearGradient id="logosMaven1" x1="21.159%" x2="52.694%" y1="394.971%" y2="13.745%"><stop offset="32.33%" stop-color="#9E2064"/><stop offset="63.02%" stop-color="#C92037"/><stop offset="75.14%" stop-color="#CD2335"/><stop offset="100%" stop-color="#E97826"/></linearGradient><linearGradient id="logosMaven2" x1="34.915%" x2="66.098%" y1="192.312%" y2="-136.283%"><stop offset="0%" stop-color="#282662"/><stop offset="9.548%" stop-color="#662E8D"/><stop offset="78.82%" stop-color="#9F2064"/><stop offset="94.87%" stop-color="#CD2032"/></linearGradient><linearGradient id="logosMaven3" x1="30.238%" x2="64.688%" y1="170.497%" y2="-44.403%"><stop offset="32.33%" stop-color="#9E2064"/><stop offset="63.02%" stop-color="#C92037"/><stop offset="75.14%" stop-color="#CD2335"/><stop offset="100%" stop-color="#E97826"/></linearGradient><linearGradient id="logosMaven4" x1="31.529%" x2="81.077%" y1="77.305%" y2="-41.421%"><stop offset="0%" stop-color="#282662"/><stop offset="9.548%" stop-color="#662E8D"/><stop offset="78.82%" stop-color="#9F2064"/><stop offset="94.87%" stop-color="#CD2032"/></linearGradient><linearGradient id="logosMaven5" x1="39.84%" x2="57.301%" y1="187.68%" y2="-51.028%"><stop offset="32.33%" stop-color="#9E2064"/><stop offset="63.02%" stop-color="#C92037"/><stop offset="75.14%" stop-color="#CD2335"/><stop offset="100%" stop-color="#E97826"/></linearGradient><linearGradient id="logosMaven6" x1="22.303%" x2="52.553%" y1="465.803%" y2="17.075%"><stop offset="32.33%" stop-color="#9E2064"/><stop offset="63.02%" stop-color="#C92037"/><stop offset="75.14%" stop-color="#CD2335"/><stop offset="100%" stop-color="#E97826"/></linearGradient><linearGradient id="logosMaven7" x1="16.634%" x2="159.526%" y1="60.308%" y2="27.099%"><stop offset="0%" stop-color="#F69923"/><stop offset="31.23%" stop-color="#F79A23"/><stop offset="83.83%" stop-color="#E97826"/></linearGradient><linearGradient id="logosMaven8" x1="-85.424%" x2="62.65%" y1="394.971%" y2="13.745%"><stop offset="32.33%" stop-color="#9E2064"/><stop offset="63.02%" stop-color="#C92037"/><stop offset="75.14%" stop-color="#CD2335"/><stop offset="100%" stop-color="#E97826"/></linearGradient><linearGradient id="logosMaven9" x1="-20.619%" x2="125.361%" y1="129.232%" y2="-53.713%"><stop offset="0%" stop-color="#282662"/><stop offset="9.548%" stop-color="#662E8D"/><stop offset="78.82%" stop-color="#9F2064"/><stop offset="94.87%" stop-color="#CD2032"/></linearGradient><linearGradient id="logosMavena" x1="9.218%" x2="80.31%" y1="170.497%" y2="-44.403%"><stop offset="32.33%" stop-color="#9E2064"/><stop offset="63.02%" stop-color="#C92037"/><stop offset="75.14%" stop-color="#CD2335"/><stop offset="100%" stop-color="#E97826"/></linearGradient><linearGradient id="logosMavenb" x1="37.046%" x2="71.794%" y1="77.305%" y2="-41.421%"><stop offset="0%" stop-color="#282662"/><stop offset="9.548%" stop-color="#662E8D"/><stop offset="78.82%" stop-color="#9F2064"/><stop offset="94.87%" stop-color="#CD2032"/></linearGradient><linearGradient id="logosMavenc" x1="-34.745%" x2="110.893%" y1="181.583%" y2="-46.554%"><stop offset="32.33%" stop-color="#9E2064"/><stop offset="63.02%" stop-color="#C92037"/><stop offset="75.14%" stop-color="#CD2335"/><stop offset="100%" stop-color="#E97826"/></linearGradient><linearGradient id="logosMavend" x1="-129.864%" x2="66.578%" y1="266.449%" y2="32.861%"><stop offset="32.33%" stop-color="#9E2064"/><stop offset="63.02%" stop-color="#C92037"/><stop offset="75.14%" stop-color="#CD2335"/><stop offset="100%" stop-color="#E97826"/></linearGradient></defs><g fill="none"><path fill="url(#logosMaven0)" d="M1.782 2.143c-.186.439-.362 1.006-.526 1.69l-.12.534c-.04.186-.078.378-.115.578l-.11.618l-.106.66l-.099.698l-.093.737l-.088.773l-.081.81l-.038.417l-.072.861l-.064.894l-.058.926a99.87 99.87 0 0 0-.026.475l5.736 2.776c-.087-3.349.021-6.515.323-9.425l.059-.518l-.04.475l-.052.785l-.019.375l-.031.855l-.012.481l-.013 1.07l.002.898l.014.982l.016.7l.037 1.123l.034.796l.042.835l.024.432c1.068-.871 2.348-2.015 3.678-3.265l.893-.848c.15-.143.3-.287.449-.432l.896-.874l.885-.878l.862-.872l.83-.854c-.917-1.875-1.907-3.253-2.827-4.26l-.304-.321a12.575 12.575 0 0 0-.588-.565l-.282-.246l-.272-.222c-.09-.07-.176-.137-.261-.2l-.25-.178l-.235-.159l-.326-.202l-.29-.162l-.324-.16l-.242-.104l-.442-.16l-.323-.104L7.52.3L7.28.24L7.02.18a9.494 9.494 0 0 0-.137-.028l-.287-.05l-.3-.044C4.709-.139 2.66.07 1.782 2.143Z" transform="translate(250.163 25.432)"/><path d="m267.075 96.87l-.796-2.91l-.702-2.59l-.299-1.138l-.582-2.249l-.562-2.202l-.559-2.261l-.27-1.114l-.52-2.185l-.523-2.24a250.602 250.602 0 0 1-.726-3.25l-.455-2.13c-.075-.351-.148-.7-.22-1.045l-.306-1.488l-.68-3.496l-.146-.78l-.295-1.532l-.09-.507l-.068-.368l-.276.25l-.57-.282l.041.188c.125.762.255 1.532.394 2.305l.468 2.502c.042.226.083.454.122.683c.266 1.4.541 2.794.835 4.194l.3 1.403c.394 1.887.814 3.778 1.24 5.641c.413 1.848.858 3.673 1.303 5.498c.296 1.216.595 2.42.899 3.618l.46 1.79c.48 1.872.963 3.717 1.466 5.523c.105.406.222.829.343 1.224l.6 2.176c.2.717.4 1.428.606 2.135l.919.462l.307-.274a.27.27 0 0 0-.038-.117c-.608-1.85-1.123-3.672-1.62-5.435Z"/><path fill="url(#logosMaven1)" d="M7.423 32.522a284.931 284.931 0 0 1-.725-5.632a126.997 126.997 0 0 1-.442-4.538l-.102-1.34a1.682 1.682 0 0 1-.002-.103a117.148 117.148 0 0 1-.257-5.323L.17 12.826l-.015.35l-.039.729a129.094 129.094 0 0 0-.111 4.36a217.03 217.03 0 0 0 .034 5.414c.04 1.735.111 3.545.205 5.385c.07 1.182.146 2.373.233 3.579l.105 1.394l7.658 3.88l-.27-1.807l-.547-3.588Z" transform="translate(250.163 25.432)"/><path fill="url(#logosMaven2)" d="m18.5 76.992l.118.409l.76 2.584c.11.367.22.736.333 1.107l.363 1.175l.124.423c.022.069.046.137.072.206l1.234 3.954c1.093-.226 2.424.181 3.831.795l.567.256c-1.036-1.246-2.47-2.08-4.183-2.273c4.69-3.128 7.776-7.157 7.343-11.964a16.475 16.475 0 0 0-.19-1.312c-.07 1.772-.777 3.073-2.827 4.463l-.253.167c2.12-3.731 2.704-6.263 2.453-9.535a31.23 31.23 0 0 0-.301-2.486c-.678 4.872-3.295 8.026-7.123 9.892l-2.321 2.14Z" transform="translate(250.163 25.432)"/><path fill="url(#logosMaven3)" d="m15.753 71.273l-.488-1.826l-.98-3.696a360.71 360.71 0 0 1-1.358-5.409c-.445-1.825-.874-3.661-1.304-5.497c-.436-1.88-.845-3.755-1.24-5.642l-.388-1.865l-.746-3.732a80.41 80.41 0 0 1-.373-2.023a231.58 231.58 0 0 1-.61-3.467l-.042-.188L.61 34.041l.024.242c.003.042.005.084.003.125c.154 1.725.303 3.476.507 5.236c.2 1.787.427 3.579.693 5.39c.225 1.526.467 3.041.72 4.572l.166.917a106.947 106.947 0 0 0 2.569 10.878c.331 1.11.656 2.178.988 3.191l.295.853l.61 1.698A76.634 76.634 0 0 0 9.59 72.92l7.696 3.9c-.41-1.416-.789-2.854-1.206-4.313l-.213-.817l-.113-.418Z" transform="translate(250.163 25.432)"/><path fill="url(#logosMaven4)" d="M9.703 73.175a60.86 60.86 0 0 0 3.056 5.752l.62 1.002c-.73-.294-1.652-.44-2.548-.505l-.445-.026a17.916 17.916 0 0 0-.219-.009l-.427-.009l-.601.002l-.538.016l-.452.023l-.632.052c-.006.001-.008.001-.007.002c3.891 1.35 7.304 3.002 9.457 5.508c-.856.942-2.457 1.658-4.47 2.241c1.498.163 2.64.096 3.464-.038l.333-.061a7.6 7.6 0 0 0 .153-.033l.276-.068l.239-.07l.29-.101l.148-.061c-1.236 1.03-2.01 2.787-2.653 4.756l-.222.703l-.108.356c1.637-2.676 3.262-4.448 4.843-5.126c1.767 5.858 3.81 12.092 6.052 18.597l1.048 3.021a830.48 830.48 0 0 0 1.076 3.058c.521-.673.58-1.417.361-2.175l-.717-2.026l-.817-2.366l-1.265-3.754l-1.036-3.147l-1.146-3.552l-1.094-3.465l-1.004-3.247l-.739-2.431l-.6-2.008c-.081-.263-.155-.531-.234-.803l-.226-.745l-.65-2.243l-.66-2.307l-.296-1.064l-.012-.015l-7.697-3.9c.018.068.037.123.06.18l.04.086Z" transform="translate(250.163 25.432)"/><path fill="url(#logosMaven5)" d="m9.135 38.082l.136.746c.1.508.19 1.02.288 1.536l.833 4.272l.306 1.488l.445 2.102l.23 1.073c.23 1.065.472 2.146.726 3.25l.523 2.24l.52 2.185l.27 1.114l.56 2.261l.558 2.198c.284 1.11.576 2.24.884 3.39c.225.85.459 1.713.698 2.586l.8 2.914l.605 2.142l.625 2.188c.106.368.212.738.32 1.108a.27.27 0 0 0 .038.117l2.321-2.139l-.056.024l-.124.06c2.756-2.602 5.117-7.816 5.657-12.515c.248-2.165.225-4.469-.072-6.982c-.215-1.873-.596-3.841-1.12-5.971a76.634 76.634 0 0 0-1.708-5.853c-.426.869-1.031 1.724-1.773 2.558l-.402.44l-.138.144l-.291.293c2.032-3.16 2.274-6.552 1.67-10.074c-.369 1.044-1.094 2.592-2.297 3.983a8.433 8.433 0 0 1-.516.548c-.032.023-.058.053-.09.084l-.056.047c.674-1.123 1.172-2.19 1.492-3.27c.05-.15.09-.303.124-.455l.05-.23c.082-.35.136-.704.19-1.058l.078-.685c.03-.403.039-.817.02-1.238l-.054-.774a2.178 2.178 0 0 0-.022-.171l-.08-.496a6.45 6.45 0 0 0-.045-.234c-.157-.92-.33-1.741-.508-2.469l-.167-.653l-.151-.551l-.197-.653l-.255-.764a6.734 6.734 0 0 0-.081-.222l-.155-.385a8.906 8.906 0 0 0-.141-.325l-.127-.26a2.318 2.318 0 0 1-.098.306l-.07.155c-.48 1.126-1.595 2.67-2.612 3.754c-.016.012-.031.023-.035.05l-.21.21a2.485 2.485 0 0 0-.106.119l.04-.078l-7.315 6.699c.062.05.07.094.065.121Z" transform="translate(250.163 25.432)"/><path fill="url(#logosMaven6)" d="M6.306 15.454c.03.534.064 1.09.105 1.67L6.5 18.31c.016.202.032.407.05.615l.108 1.273l.06.657l.017.212a.78.78 0 0 0 .018.1c.062.653.13 1.324.207 2.017l.162 1.413c.058.48.119.971.183 1.473l.304 2.298c.143 1.043.297 2.125.469 3.252l.133.854c.131.87.277 1.761.431 2.675l.482 2.819l7.316-6.699c1.525-2.763 1.858-4.482 1.838-6.618c-.008-.43-.028-.878-.056-1.336l-.031-.462a57.566 57.566 0 0 0-.661-5.776c-.3-1.858-.668-3.643-1.089-5.171a27.429 27.429 0 0 0-.838-2.624a29.788 29.788 0 0 0-.807-1.825l-.83.847c-.14.143-.284.286-.427.43l-.874.872l-.891.874l-.897.865l-.448.426l-.886.831a69.969 69.969 0 0 1-3.237 2.85Z" transform="translate(250.163 25.432)"/><path fill="url(#logosMaven7)" d="M66.756.315c-.234.096-.49.218-.764.363l-.427.236a20.89 20.89 0 0 0-.94.576l-.51.34l-.535.372l-.561.406l-.585.438l-.302.231l-.62.485l-.64.516l-.663.546l-.682.576l-.702.604l-.72.633l-.737.66l-.374.34l2.411 6.793c2.61-2.784 5.23-5.263 7.802-7.375l.905-.734l.065-.05l-.622.506l-.61.528l-.662.598l-.627.588l-.527.507l-.379.371l-.82.822l-.67.689l-.966 1.018l-.514.553l-.534.583l-.84.93l-.584.66c.6.057 1.258.107 1.958.149l1.08.057l1.134.047l1.175.037l1.205.026l1.224.016l.615.005l1.23.002c.206 0 .41-.002.614-.003l1.212-.012c.2-.002.4-.005.597-.009l1.17-.024c.959-2.86 1.178-5.16 1.104-6.878l-.026-.435l-.037-.408L74.054 7l-.051-.369l-.059-.341l-.031-.161l-.066-.301l-.069-.275l-.07-.247l-.069-.22l-.129-.359l-.105-.249l-.249-.514l-.145-.274l-.122-.216l-.14-.236l-.16-.254l-.18-.266l-.196-.275c-1.1-1.482-2.98-3.15-5.457-2.128Z" transform="translate(260.14 28.697)"/><path d="m283.012 98.652l1.009-1.836l1.369-2.438l1.199-2.127l.595-1.052l1.325-2.296l1.309-2.247l.645-1.103a452.87 452.87 0 0 1 2.015-3.376l1.317-2.172a327.901 327.901 0 0 1 3.356-5.411l1.327-2.078c.218-.34.435-.68.652-1.015l.936-1.44l1.134-1.705l1.096-1.65l.503-.745l.98-1.467l.168-.241l.314-.468l.085-.12l-.42-.018l-.235-.68l-.116.183c-.506.713-1.013 1.436-1.515 2.169l-1.61 2.386c-.147.215-.295.431-.445.647a257.067 257.067 0 0 0-2.66 4.039l-.874 1.368a352.922 352.922 0 0 0-3.484 5.526c-1.135 1.816-2.227 3.639-3.319 5.461a450.262 450.262 0 0 0-2.15 3.627l-1.053 1.807a306.152 306.152 0 0 0-3.207 5.611c-.238.41-.48.843-.697 1.257a332.461 332.461 0 0 0-2.454 4.43l.373 1.101l.464.024c.028-.04.057-.081.063-.125c.653-1.315 1.33-2.587 2.005-3.826Z"/><path fill="url(#logosMaven8)" d="M47.161 29.252c1.303-1.747 2.6-3.45 3.89-5.11c1.345-1.718 2.7-3.369 4.072-4.972c.082-.1.163-.199.241-.276a132.503 132.503 0 0 1 4.023-4.49l-2.415-6.77l-.292.27l-.61.556a145.718 145.718 0 0 0-3.553 3.422c-.692.689-1.392 1.4-2.103 2.13l-1.44 1.49l-.732.765a221.58 221.58 0 0 0-4.113 4.498a298.918 298.918 0 0 0-2.655 3.066l-1.024 1.206l3.082 9.208l1.219-1.67l2.41-3.323Z" transform="translate(260.14 28.697)"/><path fill="url(#logosMaven9)" d="m20.745 73.852l-.458.847l-1.212 2.261c-.204.382-.408.767-.612 1.155l-.64 1.234c-.123.228-.242.433-.343.663l-.674 1.301l-1.474 2.862c1.2.777 2.001 2.454 2.705 4.34c.156-1.826-.336-3.636-1.561-5.153c6.26 1.209 11.947.417 15.416-3.797c.301-.38.605-.78.89-1.206c-1.469 1.374-3.077 1.858-5.845 1.341l-.313-.062c4.671-1.32 7.152-2.893 9.551-5.727a35.322 35.322 0 0 0 1.732-2.24c-4.417 3.383-9.03 3.843-13.593 2.304l-3.569-.123Z" transform="translate(260.14 28.697)"/><path fill="url(#logosMavena)" d="m22.837 67.492l1.3-2.283l2.148-3.754a407.988 407.988 0 0 1 3.203-5.434a670.63 670.63 0 0 1 3.319-5.461a288.952 288.952 0 0 1 3.484-5.526c1.157-1.813 2.358-3.62 3.533-5.408c.43-.65.856-1.278 1.307-1.924c.74-1.095 1.502-2.186 2.264-3.277l.116-.184l-3.042-9.179l-.172.214c-.03.036-.063.071-.098.103c-1.246 1.51-2.517 3.04-3.751 4.618c-1.26 1.598-2.5 3.22-3.725 4.89a306.644 306.644 0 0 0-3.053 4.252l-.595.87A120.964 120.964 0 0 0 22.5 50.808a141.167 141.167 0 0 0-1.74 3.354c-.446.915-.873 1.855-1.297 2.773a86.678 86.678 0 0 0-2.656 6.56l3.098 9.255l.602-1.099l1.233-2.21c.207-.37.413-.744.619-1.12l.478-.828Z" transform="translate(260.14 28.697)"/><path fill="url(#logosMavenb)" d="M16.697 63.79a68.838 68.838 0 0 0-2.11 7.06l-.297 1.298c-.28-.643-.728-1.308-1.233-1.935l-.309-.371a17.152 17.152 0 0 0-.158-.182l-.32-.352l-.32-.336l-.314-.318l-.45-.434l-.41-.376l-.447-.393l-.403-.332c2.06 4.178 3.494 8.22 3.237 11.948c-1.437.079-3.296-.617-5.38-1.747c.897 1.1 1.721 1.876 2.416 2.42l.311.235c.05.037.1.072.149.106l.281.19l.26.161l.238.136l.214.111l.189.09l.162.07l.072.029c-1.747-.147-3.682.588-5.682 1.6l-.669.348l-.672.363c3.445-.854 6.16-.99 7.972-.279a448.592 448.592 0 0 0-2.686 5.17l-1.356 2.668a667.1 667.1 0 0 0-6.189 12.624l-1.394 2.929A944.65 944.65 0 0 0 0 109.26c.954-.127 1.592-.68 2.02-1.464l1.577-3.346l1.453-3.008l1.855-3.778l1.64-3.284l1.624-3.21l1.543-3.01l2.14-4.116l1.521-2.88l.523-.983l.45-.832l.41-.78l.624-1.153l1.281-2.352l.656-1.198l.606-1.092l.003-.022l-3.097-9.254a1.42 1.42 0 0 0-.095.192l-.037.1Z" transform="translate(260.14 28.697)"/><path fill="url(#logosMavenc)" d="m44.121 35.088l-.482.71c-.324.486-.658.972-.99 1.465l-1.589 2.396l-1.134 1.704l-.288.442c-.43.66-.863 1.332-1.3 2.014l-1.327 2.078a304.261 304.261 0 0 0-2.673 4.292l-.683 1.119a456.85 456.85 0 0 0-3.332 5.548l-1.296 2.214c-.654 1.12-1.316 2.26-1.983 3.432c-.395.69-.792 1.391-1.192 2.101l-1.971 3.516l-.604 1.096l-1.227 2.232c-.412.753-.826 1.513-1.242 2.281a.318.318 0 0 0-.063.124l3.569.123c-.062-.031-.128-.04-.212-.075c4.286.094 10.33-2.228 14.498-5.581c1.92-1.545 3.731-3.418 5.489-5.678c1.315-1.678 2.572-3.565 3.843-5.696a86.678 86.678 0 0 0 3.274-6.07c-1.033.362-2.2.57-3.46.652l-.673.035c-.15.007-.298.005-.453.006l-.239.003c4.147-.928 7.036-3.467 9.35-6.781c-1.128.547-2.942 1.217-5.015 1.38a9.421 9.421 0 0 1-.851.031c-.044-.006-.089-.003-.14-.004l-.081-.006c1.435-.369 2.683-.831 3.799-1.448c.16-.08.312-.172.461-.267l.223-.145c.344-.216.669-.458.994-.7l.606-.49c.46-.4.904-.848 1.312-1.345l.26-.302c.041-.05.08-.101.118-.155l.33-.463c.051-.075.102-.15.15-.224a40.137 40.137 0 0 0 1.579-2.437l.183-.312c.239-.41.449-.78.634-1.132l.217-.414l.329-.666a9.97 9.97 0 0 0 .183-.395l.096-.224l.163-.404c.048-.124.09-.239.125-.342l.047-.147c-.098.06-.205.118-.321.168l-.181.07c-1.28.525-3.405.881-5.085.947c-.022-.004-.044-.007-.069.012l-.335.002a2.811 2.811 0 0 0-.179.012l.094-.031l-11.211-.42c.009.09-.02.13-.045.15Z" transform="translate(260.14 28.697)"/><path fill="url(#logosMavend)" d="M59.822 14.624c-.4.454-.814.93-1.241 1.429l-.872 1.026l-.907 1.083l-1.095 1.322a.883.883 0 0 0-.065.096c-.625.767-1.266 1.57-1.927 2.413l-1.008 1.298l-.515.674l-1.448 1.914l-.946 1.268c-.48.646-.967 1.31-1.465 1.999l-.5.695c-.503.69-1.008 1.4-1.522 2.13l-1.039 1.484l-1.07 1.534l11.212.42c3.423-1.013 5.058-2.132 6.738-3.868a33.98 33.98 0 0 0 1.017-1.12l.342-.396a65.111 65.111 0 0 0 4.056-5.175c1.235-1.735 2.358-3.463 3.233-5.028a31.024 31.024 0 0 0 1.41-2.778c.309-.735.567-1.432.8-2.11l-1.163.02l-1.196.012l-1.217.004l-1.228-.004l-.614-.006l-1.222-.018l-1.203-.027l-.591-.017l-1.155-.042a99.894 99.894 0 0 1-.56-.025l-1.08-.058a56.81 56.81 0 0 1-1.959-.149Z" transform="translate(260.14 28.697)"/></g>
</svg>
