<svg xmlns="http://www.w3.org/2000/svg" viewBox="0 0 24 24">
  <path fill="#FF3E00" d="M20.2 4.4c-2.3-3.3-6.9-4.3-10.2-2.1L4.7 5.6a6.7 6.7 0 0 0-3 4.5c-.3 1.8.0 3.6.9 5.2-.6 1-1 2-1.1 3.2-.1 1.8.5 3.5 1.6 5 2.3 3.3 6.9 4.3 10.2 2.1l5.3-3.3a6.7 6.7 0 0 0 3-4.5c.3-1.8.0-3.6-.9-5.2.6-1 1-2 1.1-3.2.1-1.8-.5-3.5-1.6-5z"/>
  <path fill="#fff" d="M10.7 20.4a4.3 4.3 0 0 1-4.6-1.7 3.6 3.6 0 0 1-.6-2.7 3.5 3.5 0 0 1 .1-.5l.1-.3.3.2a7 7 0 0 0 2.1 1l.2.1-.0.2a1.1 1.1 0 0 0 .2.7 1.3 1.3 0 0 0 1.4.5 1.2 1.2 0 0 0 .3-.2l5.3-3.4a1.1 1.1 0 0 0 .5-.8 1.2 1.2 0 0 0-.2-.9 1.3 1.3 0 0 0-1.4-.5 1.2 1.2 0 0 0-.3.2l-2 1.3a4 4 0 0 1-1.1.5 4.3 4.3 0 0 1-4.6-1.7 3.6 3.6 0 0 1-.6-2.7 3.8 3.8 0 0 1 1.7-2.5l5.3-3.3a4 4 0 0 1 1.1-.5A4.3 4.3 0 0 1 18 4.8a3.6 3.6 0 0 1 .6 2.7 3.5 3.5 0 0 1-.1.5l-.1.3-.3-.2a7 7 0 0 0-2.1-1l-.2-.1.0-.2a1.1 1.1 0 0 0-.2-.7 1.3 1.3 0 0 0-1.4-.5 1.2 1.2 0 0 0-.3.2l-5.3 3.3a1.1 1.1 0 0 0-.5.8 1.2 1.2 0 0 0 .2.9 1.3 1.3 0 0 0 1.4.5 1.2 1.2 0 0 0 .3-.2l2-1.3a4 4 0 0 1 1.1-.5 4.3 4.3 0 0 1 4.6 1.7 3.6 3.6 0 0 1 .6 2.7 3.8 3.8 0 0 1-1.7 2.5l-5.3 3.3a4 4 0 0 1-1.1.5z"/>
</svg>
